/* XPM */
static char *_3e43f0feea044818f9bd816539519a0dsyVdB5rbNiNt8xS[] = {
/* columns rows colors chars-per-pixel */
"64 64 158 2 ",
"   c None",
".  c #000007",
"X  c #01000C",
"o  c #000013",
"O  c #0C0A15",
"+  c #01001C",
"@  c #150D1D",
"#  c #02231B",
"$  c #30280D",
"%  c #010024",
"&  c #0A0525",
"*  c #0D0925",
"=  c #010029",
"-  c #120B24",
";  c #1A0F26",
":  c #001120",
">  c #1C1326",
",  c #1F1925",
"<  c #040034",
"1  c #05003C",
"2  c #231526",
"3  c #241925",
"4  c #2B1D25",
"5  c #322425",
"6  c #392626",
"7  c #332826",
"8  c #3E2926",
"9  c #342728",
"0  c #44370A",
"q  c #442E26",
"w  c #453326",
"e  c #493926",
"r  c #533726",
"t  c #5C3E25",
"y  c #553927",
"u  c #005710",
"i  c #075B15",
"p  c #5C4A27",
"a  c #534B22",
"s  c #654325",
"d  c #6C4A24",
"f  c #6E4A28",
"g  c #654A28",
"h  c #724D27",
"j  c #784D29",
"k  c #7F5627",
"l  c #735C24",
"z  c #7D5528",
"x  c #7B5528",
"c  c #7E6928",
"v  c #040042",
"b  c #080047",
"n  c #08004D",
"m  c #1F1140",
"M  c #0A0053",
"N  c #0B005B",
"B  c #00005B",
"V  c #100354",
"C  c #0D0064",
"Z  c #0D006B",
"A  c #000065",
"S  c #0F0074",
"D  c #0F0079",
"F  c #10007A",
"G  c #100C77",
"H  c #4C3446",
"J  c #502D75",
"K  c #6D6260",
"L  c #FF1B04",
"P  c #DB2F04",
"I  c #D73404",
"U  c #FF2805",
"Y  c #815727",
"T  c #815728",
"R  c #845A28",
"E  c #895D28",
"W  c #815827",
"Q  c #856527",
"!  c #926328",
"~  c #9E6A28",
"^  c #976724",
"/  c #977229",
"(  c #A16E28",
")  c #AA7928",
"_  c #A97328",
"`  c #B47B2A",
"'  c #B87D29",
"]  c #9B4D6E",
"[  c #8E567B",
"{  c #935377",
"}  c #018F0A",
"|  c #00A900",
" . c #00A500",
".. c #5B8114",
"X. c #7AAD0E",
"o. c #00CF00",
"O. c #00FC00",
"+. c #96890B",
"@. c #BC861D",
"#. c #998628",
"$. c #A98329",
"%. c #BC8129",
"&. c #B78927",
"*. c #BD932A",
"=. c #BEA227",
"-. c #FAA619",
";. c #FFB61A",
":. c #C28529",
">. c #C78828",
",. c #DF992A",
"<. c #DA9828",
"1. c #D99231",
"2. c #E59E2A",
"3. c #D8B42A",
"4. c #EFA72A",
"5. c #F2A62A",
"6. c #F5AA2A",
"7. c #FFAD2A",
"8. c #FFA62A",
"9. c #E0B52A",
"0. c #FFB42A",
"q. c #FFBC2A",
"w. c #F3B526",
"e. c #8CC80A",
"r. c #C2D01F",
"t. c #FFD218",
"y. c #E0C72A",
"u. c #F3C32B",
"i. c #FFC42B",
"p. c #FFCC2B",
"a. c #EFD02B",
"s. c #FFD32B",
"d. c #FFDB2C",
"f. c #FFD120",
"g. c #FFCA33",
"h. c #FFE42C",
"j. c #FFEA2C",
"k. c #FFE826",
"l. c #FFF12C",
"z. c #FFFD2C",
"x. c #FFFF30",
"c. c #110082",
"v. c #12008A",
"b. c #000091",
"n. c #130090",
"m. c #3C6397",
"M. c #5A5B89",
"N. c #7B7FA3",
"B. c #0151C5",
"V. c #006EFF",
"C. c #007FFF",
"Z. c #5086C0",
"A. c #5C9BD8",
"S. c #8D8998",
"D. c #B6B5C5",
"F. c #DADFF4",
"G. c #E8E4E8",
"H. c white",
/* pixels */
"                                                                                                                                ",
"                                                                                                                                ",
"                                                                                                                                ",
"                                                                                                                                ",
"                                                                                                                                ",
"                                                                                                                                ",
"                                                                                                                                ",
"                                                                                                                                ",
"                                                                                                                                ",
"                                                                                                                                ",
"                                                      V.V.V.V.V.V.C.B.X                                                         ",
"                                                      Z.Z.] { [ { A.m.o                                                         ",
"                                                      ;.;.-.U L -.t.@.%                                                         ",
"                                                      X.X.+.I P +.e...%                                                         ",
"                                                      | | | | |  .o.} =                                                         ",
"                                                                      =                                                         ",
"                                                                      %                                                         ",
"                                                                      %                                                         ",
"                                                                      %                                                         ",
"                                                                      o                                                         ",
"                                                                  H.D.X                                                         ",
"                                                                G M.K ^ 4                                                       ",
"                                                              F S . 0 z.p o                                                     ",
"                                                            n.N + % w j.-.1.G.F.                                                ",
"                                                            Z 1 o 4 d %.w.g.S.N.                                                ",
"                                                      S v.Z o + % h.3.% ' i.O X                                                 ",
"                                  %               S S D n < % y >.s 4 % $.d.>.t %                                               ",
"                                  @               S F F % X % / l., % % ( i.j.$.%                                               ",
"                              b.J f.s %       S S S F S < + % W s.q.` % % > 6.q.q.8 %                 + % %                     ",
"                              A H k.) q       D S S F F < + % k p.d.*.% % * 5.i.p.^ 8                 % 4 x >                   ",
"                            v.< 0 s.d.u.O v v.D S S F c.< + % k s.d.*.% % & 5.q.7.d.3.% %         D S = l z.e %                 ",
"        %               v.C < % - 4 %.i.,.x < Z c.v.C = = 4 %.4.q.s > % E 7.7.0.7.0.7.,.t + Z F S c.D = d s.2.! %               ",
"        + 1             F b X % % % ~ s.j.&.X M S F b . % 9 d.p.7.> % % ) s.0.0.0.7.0.l.Q + Z F S S Z % d p.d.3.2 &             ",
"        o N v.S S S v.F % + & % % % ~ p.s.p.q.q % % = % % 7 d.h.s.3 % % % * u.d.s.0.8.p.k + S v.c.< . % d p.7.0.l.c %           ",
"        o V c.S S F N b + % = % % % ) p.s / d.&.s + % % % > E ! Y % ; ~ 3 % x E h 2.q.q.>.d m B c.C 1 % h s.i.4.! R R ;   %     ",
"        + M c.S S v.< X % % % & % % %.s.% w p.j.y.% % % % % % % % % e z.p % % % % ' p.7.p.h.$ % D v.D = d s.s.<.% c z.7 % %     ",
"        o N v.n.Z = & % % = % % % % % > q.' % & & % % % % % = % % % q i.6.%.& % % *.j.p.s.s.5 % = Z c.= ; 8 6 4 % T s.6.! = = % ",
"        + b Z Z b X % = & % % % - r 3 3 5.) * 2 4 r 4 % % % & % % 2 z q.p.u.t > % Q <.' :.:.s 4 o n Z % + % % % % T p.d.=.# : % ",
"    % % % % + + + = & % % % % % w s.s.w.% e z.h.d.z.#.% % % % % % y.j.8.i.s.z.#.% % % % % % a.a.% % + % % % % & % Q l.g.r.O.i = ",
"    % & % & % % & % % % % % % % w g.i.6.% - Y h h f R ( 2 = % % % r _ i.( y d W ~ ( z % % % g f % % % % % % % % % 9 R j a u # = ",
"    % % % & % = % % % % % = & % q i.i.5.* % % % % % l z.7 % % % % % w d.t % % g l.j.9.% % % % % = % & % % % % = % % % % % = = % ",
"                                                                                                                                ",
"                                                                                                                                ",
"                                                                                                                                ",
"                                                                                                                                ",
"                                                                                                                                ",
"                                                                                                                                ",
"                                                                                                                                ",
"                                                                                                                                ",
"                                                                                                                                ",
"                                                                                                                                ",
"                                                                                                                                ",
"                                                                                                                                ",
"                                                                                                                                ",
"                                                                                                                                ",
"                                                                                                                                ",
"                                                                                                                                ",
"                                                                                                                                ",
"                                                                                                                                ",
"                                                                                                                                ",
"                                                                                                                                ",
"                                                                                                                                ",
"                                                                                                                                ",
"                                                                                                                                "
};
