/* XPM */
static char *result[] = {
/* columns rows colors chars-per-pixel */
"64 64 8 1 ",
"  c #002500",
". c #003800",
"X c #005D00",
"o c gray32",
"O c #008300",
"+ c yellow",
"@ c #0000FE",
"# c #65A49B",
/* pixels */
"################################################################",
"################################################################",
"################################################################",
"################################################################",
"####@@@@@@@@@@@@@@@@oooo########################################",
"####@@@@@@@@@@@@@@@@oooo########################################",
"####@@@@@@@@@@@@@@@@oooo########################################",
"####@@@@@@@@@@@@@@@@oooo########################################",
"####@@@@@@@@@@@@@@@@oooo########################################",
"####@@@@@@@@@@@@@@@@oooo########################################",
"####@@@@@@@@@@@@@@@@oooo########################################",
"####@@@@@@@@@@@@@@@@oooo########################################",
"####++++++++++++++++oooo    ####################################",
"####++++++++++++++++oooo    ####################################",
"####++++++++++++++++oooo    ####################################",
"####++++++++++++++++oooo    ####################################",
"####++++++++++++++++oooo    ####################################",
"####++++++++++++++++oooo    ####################################",
"####++++++++++++++++oooo    ####################################",
"####++++++++++++++++oooo    ####################################",
"################    ooooOOOO    ################################",
"################    ooooOOOO    ################################",
"################    ooooOOOO    ################################",
"################    ooooOOOO    ################################",
"############    OOOOooooOOOOOOOO    ############################",
"############    OOOOooooOOOOOOOO    ############################",
"############    OOOOooooOOOOOOOO    ############################",
"############    OOOOooooOOOOOOOO    ############################",
"############    OOOOooooXXXXXXXXOOOO    ########################",
"############    OOOOooooXXXXXXXXOOOO    ########################",
"############    OOOOooooXXXXXXXXOOOO    ########################",
"############    OOOOooooXXXXXXXXOOOO    ########################",
"########    OOOOOOOOXXXXXXXX....XXXXOOOO    ####################",
"########    OOOOOOOOXXXXXXXX....XXXXOOOO    ####################",
"########    OOOOOOOOXXXXXXXX....XXXXOOOO    ####################",
"########    OOOOOOOOXXXXXXXX....XXXXOOOO    ####################",
"########    OOOOXXXXXXXX............XXXXOOOO    ################",
"########    OOOOXXXXXXXX............XXXXOOOO    ################",
"########    OOOOXXXXXXXX............XXXXOOOO    ################",
"########    OOOOXXXXXXXX............XXXXOOOO    ################",
"####    OOOOXXXXXXXX....................XXXXOOOO    ############",
"####    OOOOXXXXXXXX....................XXXXOOOO    ############",
"####    OOOOXXXXXXXX....................XXXXOOOO    ############",
"####    OOOOXXXXXXXX....................XXXXOOOO    ############",
"####    XXXXXXXX............................XXXXOOOO    ########",
"####    XXXXXXXX............................XXXXOOOO    ########",
"####    XXXXXXXX............................XXXXOOOO    ########",
"####    XXXXXXXX............................XXXXOOOO    ########",
"    XXXXXXXX....................................XXXXOOOO    ####",
"    XXXXXXXX....................................XXXXOOOO    ####",
"    XXXXXXXX....................................XXXXOOOO    ####",
"    XXXXXXXX....................................XXXXOOOO    ####",
"    XXXX............................................XXXXOOOO    ",
"    XXXX............................................XXXXOOOO    ",
"    XXXX............................................XXXXOOOO    ",
"    XXXX............................................XXXXOOOO    ",
"                                                                ",
"                                                                ",
"                                                                ",
"                                                                ",
"################################################################",
"################################################################",
"################################################################",
"################################################################"
};
