/* XPM */
static char *a7dd84a11a204d30a77c781988d38360xh9iAWDFxd2GuigN[] = {
/* columns rows colors chars-per-pixel */
"64 64 10 1 ",
"  c None",
". c #833100",
"X c #FE0000",
"o c #FFDE00",
"O c #FFFF3A",
"+ c #FFAD63",
"@ c #0000FE",
"# c #0163C6",
"$ c #64A5FF",
"% c #F7C4A5",
/* pixels */
"                                                                ",
"                                                                ",
"                                                                ",
"                                                                ",
"                                                                ",
"                                                                ",
"                                                                ",
"                                                                ",
"                                                                ",
"                                                                ",
"                                                                ",
"                                                                ",
"                            OOOOOOOOOOOOoooo                    ",
"                            OOOOOOOOOOOOoooo                    ",
"                            OOOOOOOOOOOOoooo                    ",
"                            OOOOOOOOOOOOoooo                    ",
"                    OOOOOOOO%%%%%%%%OOOOOOOOoooo                ",
"                    OOOOOOOO%%%%%%%%OOOOOOOOoooo                ",
"                    OOOOOOOO%%%%%%%%OOOOOOOOoooo                ",
"                    OOOOOOOO%%%%%%%%OOOOOOOOoooo                ",
"                    OOOO%%%%%%%%%%%%ooooOOOOoooo                ",
"                    OOOO%%%%%%%%%%%%ooooOOOOoooo                ",
"                    OOOO%%%%%%%%%%%%ooooOOOOoooo                ",
"                    OOOO%%%%%%%%%%%%ooooOOOOoooo                ",
"                OOOO%%%%OOOO%%%%OOOO%%%%ooooOOOOoooo            ",
"                OOOO%%%%OOOO%%%%OOOO%%%%ooooOOOOoooo            ",
"                OOOO%%%%OOOO%%%%OOOO%%%%ooooOOOOoooo            ",
"                OOOO%%%%OOOO%%%%OOOO%%%%ooooOOOOoooo            ",
"                OOOO%%%%$$$$%%%%$$$$%%%%ooooOOOOoooo            ",
"                OOOO%%%%$$$$%%%%$$$$%%%%ooooOOOOoooo            ",
"                OOOO%%%%$$$$%%%%$$$$%%%%ooooOOOOoooo            ",
"                OOOO%%%%$$$$%%%%$$$$%%%%ooooOOOOoooo            ",
"                %%%%%%%%%%%%%%%%%%%%%%%%%%%%++++@@@@            ",
"                %%%%%%%%%%%%%%%%%%%%%%%%%%%%++++@@@@            ",
"                %%%%%%%%%%%%%%%%%%%%%%%%%%%%++++@@@@            ",
"                %%%%%%%%%%%%%%%%%%%%%%%%%%%%++++@@@@            ",
"        ####%%%%    %%%%%%%%%%%%%%%%%%%%++++ooooOOOOoooo        ",
"        ####%%%%    %%%%%%%%%%%%%%%%%%%%++++ooooOOOOoooo        ",
"        ####%%%%    %%%%%%%%%%%%%%%%%%%%++++ooooOOOOoooo        ",
"        ####%%%%    %%%%%%%%%%%%%%%%%%%%++++ooooOOOOoooo        ",
"    ####    XXXX####XXXX++++++++++++++++XXXXooooOOOOooooOOOO    ",
"    ####    XXXX####XXXX++++++++++++++++XXXXooooOOOOooooOOOO    ",
"    ####    XXXX####XXXX++++++++++++++++XXXXooooOOOOooooOOOO    ",
"    ####    XXXX####XXXX++++++++++++++++XXXXooooOOOOooooOOOO    ",
"        ########    XXXXXXXXXXXXXXXXXXXXXXXX    ooooooooOOOOOOOO",
"        ########    XXXXXXXXXXXXXXXXXXXXXXXX    ooooooooOOOOOOOO",
"        ########    XXXXXXXXXXXXXXXXXXXXXXXX    ooooooooOOOOOOOO",
"        ########    XXXXXXXXXXXXXXXXXXXXXXXX    ooooooooOOOOOOOO",
"    @@@@@@@@@@@@@@@@    XXXXXXXXXXXX....XXXX                    ",
"    @@@@@@@@@@@@@@@@    XXXXXXXXXXXX....XXXX                    ",
"    @@@@@@@@@@@@@@@@    XXXXXXXXXXXX....XXXX                    ",
"    @@@@@@@@@@@@@@@@    XXXXXXXXXXXX....XXXX                    ",
"    @@@@@@@@@@@@@@@@        XXXX........                        ",
"    @@@@@@@@@@@@@@@@        XXXX........                        ",
"    @@@@@@@@@@@@@@@@        XXXX........                        ",
"    @@@@@@@@@@@@@@@@        XXXX........                        ",
"        @@@@@@@@            ............                        ",
"        @@@@@@@@            ............                        ",
"        @@@@@@@@            ............                        ",
"        @@@@@@@@            ............                        ",
"                            ............                        ",
"                            ............                        ",
"                            ............                        ",
"                            ............                        "
};
