/* XPM */
static char *result[] = {
/* columns rows colors chars-per-pixel */
"64 64 7 1 ",
"  c #7D4900",
". c #833100",
"X c #008300",
"o c #51FF00",
"O c #7BFF30",
"+ c #008486",
"@ c #65A49B",
/* pixels */
"@@@@@@@@@@@@@@@@@@@@XXXXXXXXXXXXXXXXXXXXXXXX@@@@@@@@@@@@@@@@@@@@",
"@@@@@@@@@@@@@@@@@@@@XXXXXXXXXXXXXXXXXXXXXXXX@@@@@@@@@@@@@@@@@@@@",
"@@@@@@@@@@@@@@@@@@@@XXXXXXXXXXXXXXXXXXXXXXXX@@@@@@@@@@@@@@@@@@@@",
"@@@@@@@@@@@@@@@@@@@@XXXXXXXXXXXXXXXXXXXXXXXX@@@@@@@@@@@@@@@@@@@@",
"@@@@@@@@@@@@XXXXXXXXooooooooooooooooooooooooXXXXXXXX@@@@@@@@@@@@",
"@@@@@@@@@@@@XXXXXXXXooooooooooooooooooooooooXXXXXXXX@@@@@@@@@@@@",
"@@@@@@@@@@@@XXXXXXXXooooooooooooooooooooooooXXXXXXXX@@@@@@@@@@@@",
"@@@@@@@@@@@@XXXXXXXXooooooooooooooooooooooooXXXXXXXX@@@@@@@@@@@@",
"@@@@@@@@XXXXooooooooXXXXooooooooooooooooXXXXooooooooXXXX@@@@@@@@",
"@@@@@@@@XXXXooooooooXXXXooooooooooooooooXXXXooooooooXXXX@@@@@@@@",
"@@@@@@@@XXXXooooooooXXXXooooooooooooooooXXXXooooooooXXXX@@@@@@@@",
"@@@@@@@@XXXXooooooooXXXXooooooooooooooooXXXXooooooooXXXX@@@@@@@@",
"@@@@XXXXooooOOOOooooOOOOooooOOOOooooOOOOooooOOOOooooooooXXXX@@@@",
"@@@@XXXXooooOOOOooooOOOOooooOOOOooooOOOOooooOOOOooooooooXXXX@@@@",
"@@@@XXXXooooOOOOooooOOOOooooOOOOooooOOOOooooOOOOooooooooXXXX@@@@",
"@@@@XXXXooooOOOOooooOOOOooooOOOOooooOOOOooooOOOOooooooooXXXX@@@@",
"XXXXooooXXXXooooOOOOooooOOOOooooOOOOooooOOOOooooOOOOXXXXooooXXXX",
"XXXXooooXXXXooooOOOOooooOOOOooooOOOOooooOOOOooooOOOOXXXXooooXXXX",
"XXXXooooXXXXooooOOOOooooOOOOooooOOOOooooOOOOooooOOOOXXXXooooXXXX",
"XXXXooooXXXXooooOOOOooooOOOOooooOOOOooooOOOOooooOOOOXXXXooooXXXX",
"XXXXooooooooOOOOooooOOOOooooOOOOooooOOOOOOOOOOOOooooOOOOooooXXXX",
"XXXXooooooooOOOOooooOOOOooooOOOOooooOOOOOOOOOOOOooooOOOOooooXXXX",
"XXXXooooooooOOOOooooOOOOooooOOOOooooOOOOOOOOOOOOooooOOOOooooXXXX",
"XXXXooooooooOOOOooooOOOOooooOOOOooooOOOOOOOOOOOOooooOOOOooooXXXX",
"XXXXooooooooXXXXOOOOooooOOOOooooOOOOooooOOOOOOOOOOOOooooooooXXXX",
"XXXXooooooooXXXXOOOOooooOOOOooooOOOOooooOOOOOOOOOOOOooooooooXXXX",
"XXXXooooooooXXXXOOOOooooOOOOooooOOOOooooOOOOOOOOOOOOooooooooXXXX",
"XXXXooooooooXXXXOOOOooooOOOOooooOOOOooooOOOOOOOOOOOOooooooooXXXX",
"XXXXooooXXXXooooooooOOOOooooOOOOooooOOOOooooOOOOooooOOOOooooXXXX",
"XXXXooooXXXXooooooooOOOOooooOOOOooooOOOOooooOOOOooooOOOOooooXXXX",
"XXXXooooXXXXooooooooOOOOooooOOOOooooOOOOooooOOOOooooOOOOooooXXXX",
"XXXXooooXXXXooooooooOOOOooooOOOOooooOOOOooooOOOOooooOOOOooooXXXX",
"XXXXXXXXooooooooooooooooOOOOooooXXXXOOOOXXXXooooOOOOXXXXooooXXXX",
"XXXXXXXXooooooooooooooooOOOOooooXXXXOOOOXXXXooooOOOOXXXXooooXXXX",
"XXXXXXXXooooooooooooooooOOOOooooXXXXOOOOXXXXooooOOOOXXXXooooXXXX",
"XXXXXXXXooooooooooooooooOOOOooooXXXXOOOOXXXXooooOOOOXXXXooooXXXX",
"++++XXXXXXXXooooXXXXooooooooXXXXooooooooooooXXXXooooooooXXXX++++",
"++++XXXXXXXXooooXXXXooooooooXXXXooooooooooooXXXXooooooooXXXX++++",
"++++XXXXXXXXooooXXXXooooooooXXXXooooooooooooXXXXooooooooXXXX++++",
"++++XXXXXXXXooooXXXXooooooooXXXXooooooooooooXXXXooooooooXXXX++++",
"@@@@++++XXXXXXXXooooooooooooooooXXXXooooooooooooXXXXXXXX    @@@@",
"@@@@++++XXXXXXXXooooooooooooooooXXXXooooooooooooXXXXXXXX    @@@@",
"@@@@++++XXXXXXXXooooooooooooooooXXXXooooooooooooXXXXXXXX    @@@@",
"@@@@++++XXXXXXXXooooooooooooooooXXXXooooooooooooXXXXXXXX    @@@@",
"@@@@    ....XXXXXXXXXXXXXXXXXXXXXXXXXXXXXXXXXXXXXXXX....    @@@@",
"@@@@    ....XXXXXXXXXXXXXXXXXXXXXXXXXXXXXXXXXXXXXXXX....    @@@@",
"@@@@    ....XXXXXXXXXXXXXXXXXXXXXXXXXXXXXXXXXXXXXXXX....    @@@@",
"@@@@    ....XXXXXXXXXXXXXXXXXXXXXXXXXXXXXXXXXXXXXXXX....    @@@@",
"        ................XXXX....XXXX....XXXX........        @@@@",
"        ................XXXX....XXXX....XXXX........        @@@@",
"        ................XXXX....XXXX....XXXX........        @@@@",
"        ................XXXX....XXXX....XXXX........        @@@@",
"@@@@        ....    ........................    ........        ",
"@@@@        ....    ........................    ........        ",
"@@@@        ....    ........................    ........        ",
"@@@@        ....    ........................    ........        ",
"@@@@@@@@        ........    ....    ....    ....        @@@@@@@@",
"@@@@@@@@        ........    ....    ....    ....        @@@@@@@@",
"@@@@@@@@        ........    ....    ....    ....        @@@@@@@@",
"@@@@@@@@        ........    ....    ....    ....        @@@@@@@@",
"            ....        ....                    ....        @@@@",
"            ....        ....                    ....        @@@@",
"            ....        ....                    ....        @@@@",
"            ....        ....                    ....        @@@@"
};
