/* XPM */
static char *a7c19f697e7f4a73cb1d456c86761a28Ax7pa2bTCKs2uYnq[] = {
/* columns rows colors chars-per-pixel */
"64 64 10 1 ",
"  c None",
". c #833100",
"X c #FE0000",
"o c #FFDE00",
"O c #FFFF3A",
"+ c #FFAD63",
"@ c #0000FE",
"# c #0163C6",
"$ c #64A5FF",
"% c #F7C4A5",
/* pixels */
"                                                                ",
"                                                                ",
"                                                                ",
"                                                                ",
"                                                                ",
"                                                                ",
"                                                                ",
"                                                                ",
"                            OOOOOOOOOOOOoooo                    ",
"                            OOOOOOOOOOOOoooo                    ",
"                            OOOOOOOOOOOOoooo                    ",
"                            OOOOOOOOOOOOoooo                    ",
"                    OOOOOOOO%%%%%%%%OOOOOOOOoooo                ",
"                    OOOOOOOO%%%%%%%%OOOOOOOOoooo                ",
"                    OOOOOOOO%%%%%%%%OOOOOOOOoooo                ",
"                    OOOOOOOO%%%%%%%%OOOOOOOOoooo                ",
"                    OOOO%%%%%%%%%%%%ooooOOOOoooo                ",
"                    OOOO%%%%%%%%%%%%ooooOOOOoooo                ",
"                    OOOO%%%%%%%%%%%%ooooOOOOoooo                ",
"                    OOOO%%%%%%%%%%%%ooooOOOOoooo                ",
"                OOOO%%%%OOOO%%%%OOOO%%%%ooooOOOOoooo            ",
"                OOOO%%%%OOOO%%%%OOOO%%%%ooooOOOOoooo            ",
"                OOOO%%%%OOOO%%%%OOOO%%%%ooooOOOOoooo            ",
"                OOOO%%%%OOOO%%%%OOOO%%%%ooooOOOOoooo            ",
"                OOOO%%%%$$$$%%%%$$$$%%%%ooooOOOOoooo            ",
"                OOOO%%%%$$$$%%%%$$$$%%%%ooooOOOOoooo            ",
"                OOOO%%%%$$$$%%%%$$$$%%%%ooooOOOOoooo            ",
"                OOOO%%%%$$$$%%%%$$$$%%%%ooooOOOOoooo            ",
"                %%%%%%%%%%%%%%%%%%%%%%%%%%%%++++@@@@            ",
"                %%%%%%%%%%%%%%%%%%%%%%%%%%%%++++@@@@            ",
"                %%%%%%%%%%%%%%%%%%%%%%%%%%%%++++@@@@            ",
"                %%%%%%%%%%%%%%%%%%%%%%%%%%%%++++@@@@            ",
"                    %%%%%%%%%%%%%%%%%%%%++++ooooOOOOoooo        ",
"                    %%%%%%%%%%%%%%%%%%%%++++ooooOOOOoooo        ",
"                    %%%%%%%%%%%%%%%%%%%%++++ooooOOOOoooo        ",
"                    %%%%%%%%%%%%%%%%%%%%++++ooooOOOOoooo        ",
"        ####%%%%    XXXX++++++++++++++++XXXXooooOOOOoooo        ",
"        ####%%%%    XXXX++++++++++++++++XXXXooooOOOOoooo        ",
"        ####%%%%    XXXX++++++++++++++++XXXXooooOOOOoooo        ",
"        ####%%%%    XXXX++++++++++++++++XXXXooooOOOOoooo        ",
"    ####    XXXX####XXXXXXXXXXXXXXXXXXXXXXXXXXXXooooOOOO        ",
"    ####    XXXX####XXXXXXXXXXXXXXXXXXXXXXXXXXXXooooOOOO        ",
"    ####    XXXX####XXXXXXXXXXXXXXXXXXXXXXXXXXXXooooOOOO        ",
"    ####    XXXX####XXXXXXXXXXXXXXXXXXXXXXXXXXXXooooOOOO        ",
"        ########    XXXXXXXXXXXXXXXXXXXXXXXX    ooooOOOO        ",
"        ########    XXXXXXXXXXXXXXXXXXXXXXXX    ooooOOOO        ",
"        ########    XXXXXXXXXXXXXXXXXXXXXXXX    ooooOOOO        ",
"        ########    XXXXXXXXXXXXXXXXXXXXXXXX    ooooOOOO        ",
"    @@@@@@@@@@@@@@@@    XXXXXXXXXXXXXXXXXXXX        OOOO        ",
"    @@@@@@@@@@@@@@@@    XXXXXXXXXXXXXXXXXXXX        OOOO        ",
"    @@@@@@@@@@@@@@@@    XXXXXXXXXXXXXXXXXXXX        OOOO        ",
"    @@@@@@@@@@@@@@@@    XXXXXXXXXXXXXXXXXXXX        OOOO        ",
"    @@@@@@@@@@@@@@@@....XXXX        XXXX....                    ",
"    @@@@@@@@@@@@@@@@....XXXX        XXXX....                    ",
"    @@@@@@@@@@@@@@@@....XXXX        XXXX....                    ",
"    @@@@@@@@@@@@@@@@....XXXX        XXXX....                    ",
"        @@@@@@@@    ........        ........                    ",
"        @@@@@@@@    ........        ........                    ",
"        @@@@@@@@    ........        ........                    ",
"        @@@@@@@@    ........        ........                    ",
"                ............    ............                    ",
"                ............    ............                    ",
"                ............    ............                    ",
"                ............    ............                    "
};
