/* XPM */
static char *_61038d168184ca4e6aedf49948bfc96NgnIRUmBXPvm3eu3[] = {
/* columns rows colors chars-per-pixel */
"64 64 244 2 ",
"   c #071119",
".  c #161C24",
"X  c #0D1C2E",
"o  c #1C242B",
"O  c #1A2938",
"+  c #262C36",
"@  c #2A343B",
"#  c #33383D",
"$  c #21292F",
"%  c #1D3041",
"&  c #293848",
"*  c #333C43",
"=  c #363C48",
"-  c #363D52",
";  c #27364B",
":  c #3C434B",
">  c #39444B",
",  c #2D4254",
"<  c #334353",
"1  c #3B4552",
"2  c #3E4955",
"3  c #3C4C5B",
"4  c #35485A",
"5  c #364954",
"6  c #394E63",
"7  c #3D5264",
"8  c #3A546A",
"9  c #39566B",
"0  c #3B5E7B",
"q  c #3B5B74",
"w  c #2F4A65",
"e  c #3F617D",
"r  c #41464D",
"t  c #444C54",
"y  c #464C59",
"u  c #45515C",
"i  c #4B545C",
"p  c #4A5357",
"a  c #52585D",
"s  c #445563",
"d  c #4B5562",
"f  c #4C5965",
"g  c #455B6C",
"h  c #4B5C6B",
"j  c #445667",
"k  c #535C64",
"l  c #535D6A",
"z  c #565B65",
"x  c #435D73",
"c  c #4A5D72",
"v  c #475C78",
"b  c #465169",
"n  c #4D616C",
"m  c #55626B",
"M  c #5B636C",
"N  c #5C666A",
"B  c #4C6374",
"V  c #43637C",
"C  c #4C657B",
"Z  c #49667A",
"A  c #546473",
"S  c #5B6573",
"D  c #5C6A75",
"F  c #53657B",
"G  c #556B7C",
"H  c #5B6C7B",
"J  c #546976",
"K  c #5B717D",
"L  c #62676D",
"P  c #646B74",
"I  c #646D7A",
"U  c #696D76",
"Y  c #64727D",
"T  c #6B737C",
"R  c #697477",
"E  c #73767D",
"W  c #605F64",
"Q  c #3E6483",
"!  c #446683",
"~  c #466985",
"^  c #4B6B84",
"/  c #4B6E8A",
"(  c #476A88",
")  c #536D83",
"_  c #5C6D83",
"`  c #526D8A",
"'  c #4E718D",
"]  c #5C7384",
"[  c #54738D",
"{  c #5B758B",
"}  c #567386",
"|  c #537592",
" . c #5C7A94",
".. c #597895",
"X. c #4C7392",
"o. c #637483",
"O. c #657986",
"+. c #6C7A84",
"@. c #637689",
"#. c #647B8B",
"$. c #6B7C8B",
"%. c #6B7582",
"&. c #737B83",
"*. c #727D8B",
"=. c #777C85",
"-. c #6B7D93",
";. c #627C97",
":. c #657185",
">. c #667FA0",
",. c #817F8C",
"<. c #5F819D",
"1. c #6C818E",
"2. c #73828D",
"3. c #7C848C",
"4. c #79858A",
"5. c #6A8498",
"6. c #738493",
"7. c #7B8691",
"8. c #7B8995",
"9. c #738B9C",
"0. c #7B8C9B",
"q. c #758697",
"w. c #7D929F",
"e. c #6D8BA4",
"r. c #6A86A5",
"t. c #748DA6",
"y. c #7C92A4",
"u. c #7492AB",
"i. c #7B95AA",
"p. c #7B97AB",
"a. c #7B99B3",
"s. c #6E91AD",
"d. c #7DA0B6",
"f. c #7FA7C9",
"g. c #82898D",
"h. c #848C95",
"j. c #858B96",
"k. c #84929B",
"l. c #8B949B",
"z. c #8A9597",
"x. c #91959B",
"c. c #8495A3",
"v. c #8C9AA4",
"b. c #849BAC",
"n. c #8B9CAC",
"m. c #8997A3",
"M. c #949CA4",
"N. c #969DA9",
"B. c #859DB3",
"V. c #939EB0",
"C. c #9AA3AC",
"Z. c #97A4AC",
"A. c #8EA3B5",
"S. c #89A5BB",
"D. c #93A4B3",
"F. c #96ABBB",
"G. c #9AABB7",
"H. c #91A6B3",
"J. c #A2A4AA",
"K. c #A3ABB6",
"L. c #A4B2BB",
"P. c #AAB3BA",
"I. c #B2B7BC",
"U. c #A9B4AE",
"Y. c #85AACD",
"T. c #88A8C8",
"R. c #95ADC4",
"E. c #8AB2CE",
"W. c #8AB0CA",
"Q. c #9AB4C8",
"!. c #8CACD1",
"~. c #94ADD6",
"^. c #8DB3D3",
"/. c #92B3D5",
"(. c #94BAD5",
"). c #9BBCD4",
"_. c #94B5D9",
"`. c #96BBD9",
"'. c #9ABDDD",
"]. c #A4B5C3",
"[. c #ACBAC4",
"{. c #A8BAC9",
"}. c #B3BCC3",
"|. c #B5BDC9",
" X c #A2BCD3",
".X c #A5BED7",
"XX c #9CBEE1",
"oX c #9DC2DB",
"OX c #9DC6DB",
"+X c #B5C3CC",
"@X c #BBC4CC",
"#X c #BAC5C9",
"$X c #A2C4DD",
"%X c #ABC4DB",
"&X c #A3C9DF",
"*X c #ABC9DD",
"=X c #A7C1D4",
"-X c #BCCBD5",
";X c #B3CADC",
":X c #BBCCDB",
">X c #B6C5D5",
",X c #B1C4D2",
"<X c #9EC1E1",
"1X c #A3C6E3",
"2X c #A2C9E2",
"3X c #A3CAE5",
"4X c #A5CAE5",
"5X c #A5CDE6",
"6X c #A5CBE2",
"7X c #AACDE3",
"8X c #A5C6EA",
"9X c #A8CBE9",
"0X c #B2CDE2",
"qX c #ADD1E6",
"wX c #ADD2EA",
"eX c #A7D0E4",
"rX c #B3D4EB",
"tX c #B8D5E9",
"yX c #B9D8F3",
"uX c #C5C8CC",
"iX c #C5CED6",
"pX c #C5D2DB",
"aX c #CBD3D9",
"sX c #D4D8DC",
"dX c #D1D1CF",
"fX c #C3D5E3",
"gX c #CCDAE3",
"hX c #CCDCEB",
"jX c #C6D9E8",
"kX c #D3DBE3",
"lX c #D4DBE8",
"zX c #C6DEF2",
"xX c #D5E2EC",
"cX c #DBE3E9",
"vX c #CAE3F7",
"bX c #D3E5F3",
"nX c #DAEAF6",
"mX c #DAEDF9",
"MX c #E2E6EB",
"NX c #E5ECF6",
"BX c #E8F4FD",
"VX c #F5FBFE",
"CX c #F1EFFD",
"ZX c #E0DFE5",
/* pixels */
"6X6X4X4X5X5X9X4X4X9X4X4X9X4X9X8X8X8X8X8X8X8X8X9X1X<X%X<X<X$X.X.XXXXX<XXXXXXXXXXX_.XX_._._.^.^._.~.~.~.~.~.!.!.!.T.T.T.T.Y.Y.Y.Y.",
"4X4X4X7X5X5X4X1X8X4X8X8X4X8X9X8X8X8X9X8X8X8X4X8X%X%X%X<X.X.X'.$X<X<XXXXXXXXXXXXX_._._._._._._.!.~.~.~.~.~.~.!.!.!.!.Y.Y.Y.Y.Y.Y.",
"4X4X7X4XeX<X3X<X4X3X1X3X4X3X4X8X8X8X8X8X8X1X8X1X1X1X8X<XoX$X$XoX<XXXXXXXXXXXXX_._.XX_._._._.^._.~.~.~.~.~.!.!.!.!.!.Y.Y.Y.Y.Y.f.",
"4X4X4X4X3XeX<X3X6X4X4X4X3X4X4X3X3X8X3X3X1X8X1X8X1X1X%X1X$X$X$XOX<XXXXXXXXX_.XXXX'.XX'.'._._._._._._.~._.~.^.!.!.!.!.!.Y.Y.Y.Y.f.",
"3X3X5X5X3X3X5X<X3X3X3X3X3X3X3X3X1X4X3X4X3X3X3X2X1X1X6X3X$XOX&X&X<XXX<XXXXX'.'.'.'.'.'.`.`.`._._._._._.^.^.^.^.!.^.^.Y.^.Y.Y.Y.f.",
"3X3X5X5X5X5X5X<X5X3X5X5X5X3X5X5X2X6X8X4X4X4X6X&X1X6X2X2X&X&XOX<X1X1X<X<XXXXX'.XX'.'.'.'.).`.`.`._.XX_.`._.^._.^._.^.^.f.!.Y.Y.f.",
"3X3X5X5X5X9X5X5X5X5X5X5X5X5X5X5X4X4X4X9X5X4X&X&X6X6X2XOX3XOX<XOX2X1X1XXX<X<X<XoX$X'.'.'.).'.`.`.'.`._.^.^.^._.^.^.^.Y.^.!.Y.Y.Y.",
"3X3X5X5XwX9XwXwX5XeXeXeX5XeX7X5X6X7X7XeX7X7XeXeX6X2X2XeXOX&XOXeX2X1X1X2X2X$X<X<X'.$X'.'.'.`.(.(.`._._.^.^.^.^._.^.^.^.Y.!.!.!.f.",
"9X9X8XyXyX9X<XyXrXyX7X5XwXwXrX&X*XeXqXrXqXeX*XqX&XeXeXeXOXOXOXeX2X1X$X2X$X'.'.oX1X$X<XOX$XoX).oXOXf.^.E.(.^.^.^.^.^.E.E.E.W.W.E.",
"/.8XwX9X8X9XyX9X2XeX&X*XqX*XqXtXqXqX;X*XeX*XqXeX&X&X&XeXeXeX&XOX6X4X4X1X6X$X$X$X$XoX2XoXoXoXoXoXOXoXOXOXoXoX(.(.^.^.^.E.E.^.E.E.",
"s.S.9XyX9X4X8X XwXyX7X7XtXqX&XtXtXtX;X*X0XzXrXeX*X&XeXeXeXeXeXOX$X$X&X&X&X&X$X$X$X$X$XoXoXoXoXoXOXoXOX^.oX^.(.(.^.`.^.(.Q.^.^.Q.",
"..>.XXmX9XB.B.t.=XrXtX*XzXzX*XqX;X0XtXeXtXvXtXOX0XqXqXeXeX&XeXeX$X2X2X%X&X&X&X&X2X&X&X$X$XoX$XOXoXoX^.oXoXOXoX(.oX(.(.(.(.(.(.(.",
"r.>.~.9XS.;.` ^ e.Q.yX=X*XjXqXtX;XtXjXjXjXzX*XS.=X&XqXtXeXeXeXwXwXrXeX&X&XqXqXeX&X6X6X&X&X&X&X$XOXoXoX^.).oX).).).).`.`.).).).Q.",
">.r.B.t.` ` >.` C S.vX0X=XtXtXjXfXzXvXvXvX0X=Xp.p.S.&XtXyXrXqXwXwXwXeXOXoX&XqXqX7X6X7X7X*X6X7X&XOXOXOXOXoXoXoX).oX)..X.X).).).).",
">.>.>.` ! ..r.;.} 5.zXvX;XvXjXvXxXvXmXmXjX=XH.p.5.p.F.eXrXtXrXwX(.Q.W.d.S.oX&XqXqX0X7X7X7XeX7XeXeX2XOXOX1X%X$X$X%X$X%X.X.X.X.X.X",
">.>.>...@..._ {  .F =XvXjXBXmXmXjXjXzXhX-XF.d.p.9.e.d.Q.*XyXyXrXa.d.p.s.a.oXrXyXrXrXrX0X0X;X;X0X*X&X2XOX*X6X&X1X%X=X.X.X<X.X.X.X",
"......;.....` [  .B #.BXxXmXxX+XaXxXmXbXhXQ.y. XR.u.e.u.Q.).*XS.d.S.s.r.T.~..XyXzXvXmXbXnXxX#XgX-X,X=XqXyXeX=X*X,X;X>X=X>X;X.X1X",
"( ( ` ` ....[ | { { g {.BXnX+XaXxXBXVX>Xy.c F  XR.u.t.t.S.R.Q.R.p.u.e.r.t.T.~.T..XtXfXhXMXcXsXcX-X+XF.F.*XtX;X*X;X:X-X>X0X%X.X0X",
"Q ! ^ ( [ | [ [ } { 7 6.bXbX-XxXlX-XD.@._ G x  .u.;.e.e.r.T.S.R.d.e.s.s.>.T.~.s.s.~.A.,XjX-XnXcX#XL.y.9.Q.rXtX;XpXzXgXpXpX.X1XrX",
"! ^ ^ ` / / ` / Z q Z G B.-XbX+Xc.0.@.B ) [ v C [ ! r.e.5.R.p.Q.S.s.r...>.a.f.>.>.u.9.H.=X-XgXsX-X=Xp.1.p.OXtXjXjXxXgXtXfXtXyXzX",
"^ ^ ^ ^ / / / ' ~ w } q Z y.+Xw._ @.-.) C ) ! ` / 0 ;.e.r..XR.%XeX(.a.<.s.s.r.a.u.r.B.A.Q.-X-XpXpX+XH.5.5.d.OXzXbXfXpXhXbX0X%XvX",
"^ Z ~ ~ ~ ( / ' e e [ Z ) Z 1.y.;.} { ! ! [ ! ! | v |  .r.Q.Q.%XvXrXW.a.S.s.>.f.a.r.R.A.A.,X{.[.-X+XF.w.<.1.p.=XnXpX:XnXhXB.B.%X",
"/ G Z ~ ! ~ / / ~ e ' V { ^ Z d.[ ! ..` Q ( ! | / 0 ^ ` 5.B.). X*X*X=XR.S.B.a.B.B.B.R.V.c.L.+X+X#X-X=Xd.5.e.9.p..XiXfXpX.Xc.>.u.",
"{ [ / ^ Z ! ( ( Q e ' e e V e X...v ( | | ..( ! ( 0 ( | u.a..X].{.,XfXjX{..X0X{..X.XF.D.v.U.nXcX-XxX-XF.H.S.p.1._ |.aX].n.A.B.;.",
"{ } ) { [ ( 0 0 q Q ( Q e e e e ../ V ( | X./ ( Q ( Q ! a.).R.R.[.[.pXpXhXhXBXmXmXfXpXgXaXBXVXaXBXgXaX=XS.F.i.K @.*.C.L.-.-.R.B.",
"fXb.B B ) [ ^ ( ( X.' Q e Q Q e  ...` / | ( Q Q Q Q ! ` u.T.R.S.|.#X@XaXaXnXnXxX#XxXgXaXBXVXcXcXBXgX+XQ.F.S.p.1._ 7.7.6.o.o.y.a.",
"xXfXQ.q.) { [ / ( ( X.( Q / Q e ..;.......X.! ( Q Q ! X. .u.R.F.L.I.I.uXaXNXsX#XH.#XU.U.iXnXcXcX#X[.6.w.F.S.S.1.c.8.7.m.V. X.X;.",
"pXxXxX=X9.G )  .( ( X.X.X.X.( Q ^ ) ) / | / ! ( Q Q ! / ~ 5.T. X[.uXuXuXkXgX[.z.w.4.4.1.+.U.xXaX}.+XK 1.A.d.y.n +.|.K.l.L.n.) b ",
"iX+XaXmXjXb.G V | X.X.X.( Q Q <.G { ` }  .[ ` | ` Q / X.( ..T.R.U.}.aX}.xX#XL.w.4.1.1.R n 6.H.b.#XP.K 6.Q.H.Q.n.].G.C.K.m.#.@.x ",
"sXaXaXgXbXjXS.) ' V ( | X.Q Q ' ) #.-.#.;.;... .| ( / ..` ` ;.u.w.v.[.w.-Xv.H.w.O.9.O.q K K ] w.v.R 3 1.F.S.;XbXaX[.&.M.pXn.@.b.",
"MXVXMX}.[.hXvX7X5.| ( | X.( Q ' -.n.D.i.9.{ ` [ ` ( Q ` ..( ( ;.b.H.F.w.F.} K K 1.<.Z q V Z Z 9.1.m n 1.q.9.R.:X[.M.3.v.7.h ^ ) ",
"dXsXNXVXxX@X:XbXtXF.{ ^ ( ^ X.5.>XxXnXpXD.5.{ ;...` Q ( >.| ' r.b.G.U.d.[.9.} 1.} q G } e e Z K n m 4.1.] b.G.G.n.D.+.h b v F 6 ",
"U.x.J.sXZXCXCXsXlXNXlXn.H H O.] kXcXaX@XiX;Xb.G { Z ~ V e ~ |  .=XG.H.v.w.1.Z 1.Z } G 9 q K e q f w.-XU.=XG.1.F.K ] B 4 q x 9 9 ",
"# + W uXI.uXsXMXCXCXNXnX|.$.g H P.sXNXcXpX@X[.{.A.} B Z ^ ' ^ e w.H.d.1.1.1.K e G q q e Z 9 9 K [.[.U.H.G.H.4.7 1.] B 6 6 9 w w ",
"$ o y N.z W N.CXlXNXNXBXVXmXQ.0.@X@XI.P.iXpXfXfXvXp.Z e V e e V Z 1.1.n n 1.1.Z Z B Z K K 9 Z p.w.4.g w.1.> K n G n 9 7 8 q v v ",
"z # b l O - I N.iX|.0.7 9.vXBXmXiX@XP.m.h.m.{.bXF.9.5.5. .} ^ Z n n 9 n } 1.} K K } Z Z e Z <.9.R J p Z.H.3 n u 0.g w q 8 9 ` ;.",
"l G Q.A.H 4 @.R.) -._ v G 5.i.b.m.l.8.8.h.6.O.1.0.9.t.5.} ) ) V J B J 1.1.J Z } 1.{ q 6 B ] { ] n 4.O.R O.s n K ,X] 8 B 6 ; e 5.",
"c.b ] } b.@.F q.-.:.;._ B B B B J *.2.o.J m o.c.y.6.@.B g C ) n 9 1.9.1.K n B K C B 7 7 q g } y.4.v.4.p p s D =Xn.B 3 F v , 4 [ ",
"=X9.@.9 #.G B F.].b.q._ g O.1.n h H 2.c.F.H.O.h A h n G K @.@.B 5 K 1.1.O.K B J 7 7 g B g 5 B b.9.R f f K n 3 m F 6 , 8 c w 4 v ",
"A.F.b.s h G g D.jXL.G.m.Y 2.c.+.o.w.k.O.A h h H 6.H n J A A A B 3 n J } 1.O.n 7 B h 7 g n 7 7 J K R R D f N 8.1.%.J < ; , 4 6 C ",
"].b.6.Y f K K M.l.k.1.[.Z.Z.k.G.{.0.c.c.j n j u h H $.Y 0.o.D h n 7 n K n.tXG.H J s h 4 j s & $.iX|.|.=.z I V.:.A G s h ; _ 9.; ",
"pXL.Z.h.l.k.h.Z.m P R E 4.h.J.}.[.c.w.0.0.H 7 A s 7 0.8.S j o.j 7 5 j K #.q.$.$.b 3 H O.J h H |.iXiX].j.d *.*.:.I A b % @.c., % ",
"x.K.4.: #   > R 4.4.T y > p P E k.$.v.0.k.1.1.Y o.Y 8.8.1.m 2.G.H 7 n K I o.A l f 5 s f - 2 *.].V.K.C.*.I l.I S %.y ; s q.3 3 K ",
"x.I.E # 2 p N +.+XL.z.l.L 4.z M k.8.fXiXv.{.bXL.8.k.1.J J n A $.A.6.O.B c #.6.6.j h s d s f S d d z =.z *.*.z l u $.0.0.D ; g & ",
"U N.L P N R f m |.Z.O.%.l k.%.*.P D L.[.+.[.nX+Xc.D.L.w.J c.D.c #.0.R.n.H b 4 < A %.l f I f - 1 z y U y U :.d L *.I 6.7.o.h o 4 ",
",.M.z U p i & s 0.$.H O % S :.*.N k f N > u u D 8.m.V.A.w.V.F.n.c.9.n.q.h < < h f Y Y *.h.l = L %.y r y + - + - 6.*.S h 5 6.] & ",
"J.,.r y M n.D n 7 c -.v v -.) F C.h.4.P 2 o   O H H s J A 7 < @.@.c _ $.0.c.*.:.< d 7.N.[.C.P P ,.:.,.M.d d z d %.l u 0.o.f o.< ",
"U =.T m $.,Xq.5 j b v ` b :.; 4 2.D v.k.S 1 u u Y J J @.j H F b B s j s H c.:.; h - s u 7.kX].=.,.z N.iXN.P j.f t t k d k.&.m k.",
"U b U l u 1.P 5 a , 3 I c.S l j 5 & O.f H.j 3 & $.j %.j b l A l -._ b x q 7 7 7 K J s f * a > 4.N.,.W %.t d t 7.g.g.x.r S &.N.N.",
"@Xx.& r D i m 2 m m 1 2 0.pXN.< , , , g L.A.].h %.9.n.6._ V.].V.:XQ.q.F G n G Z , 9.v.K D R r r N.j.z d t N k a U m.I.P.j.J.x.,.",
"aXiXP.E a m m f m z.E u 1 l.8.f B 5.K B 7 q.bX;X:XV.8.:XlXNXlX.Xn.V.v.6.w.G J 9 J 7 4.H.R 2 a M.z N.z * R M # P W P &.%.J.g.,.K.",
"2.M.cXC.p 2.l.R 8.4.2.4.P d 1 s @ 5 6.8.n 1.0.O.{.{.l.m.*.-.j.S l :.Y J K s K #.3 J N 4.z.M.g.dX=.d U z k k E N.J.= &.x.,.U ,.i ",
"U.Z.4.Z.E m z.i |.M 1 I 2.1 - l n & s A j d h s y @.V.G.G.n.|.F.l m D S p , K 4.4.4.v.K p E U.z.z.z z.m i N i z J.W %.}.g.I.J.U ",
"4.E t N 4.N +.z.|.P t u I t u l D u 5 J O.& I Y s - _ K.lXiXlX|.v.l.G.L.O.n R n > K U.R x.# r # # 3.Z.@ a P @ a =.U = W j.U * ,.",
"* a a 2 p > * R G.7.T T 4.%.k t k.+.+ 5 *.m 2.m.f 2 s t I ].lXfXpXP.G.G.n R w.s % @ p 5 r y ,.y * k 7.i + k M.Z.z + r U N.U W x.",
"o > o a k * P p l.z.%.T y y M l.mXaX2.2 M D d v.l.d 1 4 ; :.=.M.k.K u a   n O.O & K n p   + ,.J.U M P x.N @ M a = W : y W ,.r U ",
"$ a a t g.a R p l.h.= * M T l 7.VXVXx.p 4.R a > l S t 1 d b *.V.+.D I l X - g ; X ) -.,.*.; . W C.M.z.j.j.E C.j.,.y y L r o # W ",
". p a a L @ r p N k a i P l z.Z.dXI.g.E a P U z : S %.y y l =.%.k.A :.-._ b c _ - l b l =.S = - y I.}.l.3.z.T z.r z L ,.N.U W ,.",
"$ # * # @ . > 4.x.h.g.T u z @XN.L g.L W # W 4.3.&.1 g.P t l = *.y S 6._ -._ F b - b 6 % ; - - - * i z.l.i M i U W a =.x.N.,.=.=.",
"sX#Xg.L p p a Z.P.#Xh.E * g.aXT p E W E U.4.R z.g.3.%.f - I - S I _ $.I :._ :.-._ F b ; + - - - k T M.z.C.T E |.=.z %.U = . U N.",
"dXiX#XkXdXsX#XuXJ.aXx.g.L M.I.t # W W p J.x.x.E l J.d l %.y l b S m m Y b :.-.*.A - - 2 - = & + u y $ @ N.}.K.T ,.N.,.x.K.E W a ",
"dXdX#X#X}.sXcXMXNXVXMXkXCXkXNXP.g.J.E W # W L a r i &.%.K.f y P i p y m 1 :.:.A l - ; d z y : = . o   @ @ 3.P.U L J.I.,.W = y r ",
"z.U.U.MXsXaXsXuXaXaXaXsXCXkXCXVXVXZXuXZXx.+ . = o $ j.z &.m.m R Z.L t m D D %.V.n.%.d M ,.N.g.P # : $ * y U %.,.W ,.,.N.r = z # ",
"U.U.U.dXuXuXcXdXsXlXuXZXsXkXkXNXdXdXJ.J.dXE # + @ o o I u %.*.E N 4.R p 4.+.S u S 7.j.U L =.E R R : 7.=.z W %.W U ,.L ,.a o . r "
};
